# xmcd
#
# Track frame offsets:
#	150
#	18083
#	33695
#	48913
#	64800
#	76255
#	88873
#	108413
#	118978
#	132115
#	146148
#	158373
#	177483
#	192955
#	207295
#	224163
#
# Disc length: 3173 seconds
#
# Revision: 4291821547
# Processed by: cddbd v1.5.2PL0 Copyright (c) Steve Scherf et al.
# Submitted via: EZCDAudioConverter 8.3.2.1
#
DISCID=e90c6310
DTITLE=MATS RÅDBERG and RANKARNA - MATS RÅDBERG OCH RANKARNA
DYEAR=1991
DGENRE=Svensk
TTITLE0=I'M THE SINGER YOU'RE THE SONG
TTITLE1=HONKY TONKIN'
TTITLE2=THE GREAT SNOWMAN
TTITLE3=THE GAMBLER
TTITLE4=SIX DAYS ON THE ROAD
TTITLE5=RUBY, DON'T TAKE YOUR LOVE TO TOWN
TTITLE6=AKTA DIG FÖR TOMMY
TTITLE7=ROCK ME
TTITLE8=STAY AWAY
TTITLE9=EARLY MORNING RAIN
TTITLE10=TAKE ME TO THE COUNTRY
TTITLE11=VÄN PÅ VÄGEN
TTITLE12=PETA IN EN PINNE I BRASAN
TTITLE13=LOVE ME TENDER
TTITLE14=GARDEN PARTY
TTITLE15=MAMMA LÅT EJ DIN GRABB VÄXA UPP TILL EN COWBOY
EXTD=
EXTT0=
EXTT1=
EXTT2=
EXTT3=
EXTT4=
EXTT5=
EXTT6=
EXTT7=
EXTT8=
EXTT9=
EXTT10=
EXTT11=
EXTT12=
EXTT13=
EXTT14=
EXTT15=
PLAYORDER=
